#Comment line ignore any data following # character 
#Hierarchical Translation and Rotation (.htr) file 
[Header]	
#Header keywords are followed by a single value 
FileType HTR		#Single word string
DataType HTRS		#Translation followed by rotation and scale data
FileVersion 1		#integer
NumSegments 84		#integer
NumFrames 2		#integer
DataFrameRate 30		#integer, data frame rate in this file
EulerRotationOrder ZYX
CalibrationUnits mm
RotationUnits Degrees
GlobalAxisofGravity Y
BoneLengthAxis Y
ScaleFactor 1.00
[SegmentNames&Hierarchy]
#CHILD	PARENT
MASTER GLOBAL
root MASTER
chest root
L_mid_tent01 root
R_mid_tent01 root
spine01 root
Bip01_Neck chest
L_humerus chest
R_humerus chest
weapon_bone chest
Bip01_Head Bip01_Neck
eye_left_bone Bip01_Head
eye_right_bone Bip01_Head
L_forearm L_humerus
L_front_hand L_forearm
L_weapon_bone L_forearm
L_front_hand01_01 L_front_hand
L_front_hand02_01 L_front_hand
L_front_hand03_01 L_front_hand
L_front_hand01_02 L_front_hand01_01
L_front_hand02_02 L_front_hand02_01
L_front_hand03_02 L_front_hand03_01
R_forearm R_humerus
R_front_hand R_forearm
R_weapon_bone R_forearm
R_front_hand01_01 R_front_hand
R_front_hand02_01 R_front_hand
R_front_hand03_01 R_front_hand
R_front_hand01_02 R_front_hand01_01
R_front_hand02_02 R_front_hand02_01
R_front_hand03_02 R_front_hand03_01
null_rope01_connect L_mid_tent01
Rope1_Seg01 null_rope01_connect
Rope1_Seg02 Rope1_Seg01
Rope1_Seg03 Rope1_Seg02
Rope1_Seg04 Rope1_Seg03
Rope1_Seg05 Rope1_Seg04
Rope1_Seg06 Rope1_Seg05
Rope1_Seg07 Rope1_Seg06
Rope1_Seg09 Rope1_Seg07
L_mid_hand01 Rope1_Seg09
L_mid_hand02 Rope1_Seg09
L_mid_hand03 Rope1_Seg09
null_rope02_connect R_mid_tent01
Rope2_Seg01 null_rope02_connect
Rope2_Seg02 Rope2_Seg01
Rope2_Seg03 Rope2_Seg02
Rope2_Seg04 Rope2_Seg03
Rope2_Seg05 Rope2_Seg04
Rope2_Seg06 Rope2_Seg05
Rope2_Seg07 Rope2_Seg06
Rope2_Seg09 Rope2_Seg07
R_mid_hand01 Rope2_Seg09
R_mid_hand02 Rope2_Seg09
R_mid_hand03 Rope2_Seg09
spine02 spine01
spine03 spine02
pelvis spine03
null_rope03_connect pelvis
null_rope04_connect pelvis
Rope3_Seg01 null_rope03_connect
Rope3_Seg02 Rope3_Seg01
Rope3_Seg03 Rope3_Seg02
Rope3_Seg04 Rope3_Seg03
Rope3_Seg05 Rope3_Seg04
Rope3_Seg06 Rope3_Seg05
Rope3_Seg07 Rope3_Seg06
Rope3_Seg08 Rope3_Seg07
Rope3_Seg09 Rope3_Seg08
R_rear_hand01 Rope3_Seg09
R_rear_hand02 Rope3_Seg09
R_rear_hand03 Rope3_Seg09
Rope4_Seg01 null_rope04_connect
Rope4_Seg02 Rope4_Seg01
Rope4_Seg03 Rope4_Seg02
Rope4_Seg04 Rope4_Seg03
Rope4_Seg05 Rope4_Seg04
Rope4_Seg06 Rope4_Seg05
Rope4_Seg07 Rope4_Seg06
Rope4_Seg08 Rope4_Seg07
Rope4_Seg09 Rope4_Seg08
L_rear_hand01 Rope4_Seg09
L_rear_hand02 Rope4_Seg09
L_rear_hand03 Rope4_Seg09
[BasePosition]
#SegmentName Tx, Ty, Tz, Rx, Ry, Rz, BoneLength
MASTER 0.000000 0.000000 0.000000 -90.000000 0.000000 0.000000 10.000000 
root 0.000000 0.000000 0.000000 0.000000 0.000000 0.000000 10.000000 
chest 0.000000 0.000000 0.000000 0.000000 0.000000 0.000000 10.000000 
L_mid_tent01 0.000000 0.000000 0.000000 0.000000 0.000000 0.000000 10.000000 
R_mid_tent01 0.000000 0.000000 0.000000 0.000000 0.000000 0.000000 10.000000 
spine01 0.000000 0.000000 0.000000 0.000000 0.000000 0.000000 10.000000 
Bip01_Neck 0.000000 0.000000 0.000000 0.000000 0.000000 0.000000 10.000000 
L_humerus 0.000000 0.000000 0.000000 0.000000 0.000000 0.000000 10.000000 
R_humerus 0.000000 0.000000 0.000000 0.000000 0.000000 0.000000 10.000000 
weapon_bone 0.000000 0.000000 0.000000 0.000000 0.000000 0.000000 10.000000 
Bip01_Head 0.000000 0.000000 0.000000 0.000000 0.000000 0.000000 10.000000 
eye_left_bone 0.000000 0.000000 0.000000 0.000000 0.000000 0.000000 10.000000 
eye_right_bone 0.000000 0.000000 0.000000 0.000000 0.000000 0.000000 10.000000 
L_forearm 0.000000 0.000000 0.000000 0.000000 0.000000 0.000000 10.000000 
L_front_hand 0.000000 0.000000 0.000000 0.000000 0.000000 0.000000 10.000000 
L_weapon_bone 0.000000 0.000000 0.000000 0.000000 0.000000 0.000000 10.000000 
L_front_hand01_01 0.000000 0.000000 0.000000 0.000000 0.000000 0.000000 10.000000 
L_front_hand02_01 0.000000 0.000000 0.000000 0.000000 0.000000 0.000000 10.000000 
L_front_hand03_01 0.000000 0.000000 0.000000 0.000000 0.000000 0.000000 10.000000 
L_front_hand01_02 0.000000 0.000000 0.000000 0.000000 0.000000 0.000000 10.000000 
L_front_hand02_02 0.000000 0.000000 0.000000 0.000000 0.000000 0.000000 10.000000 
L_front_hand03_02 0.000000 0.000000 0.000000 0.000000 0.000000 0.000000 10.000000 
R_forearm 0.000000 0.000000 0.000000 0.000000 0.000000 0.000000 10.000000 
R_front_hand 0.000000 0.000000 0.000000 0.000000 0.000000 0.000000 10.000000 
R_weapon_bone 0.000000 0.000000 0.000000 0.000000 0.000000 0.000000 10.000000 
R_front_hand01_01 0.000000 0.000000 0.000000 0.000000 0.000000 0.000000 10.000000 
R_front_hand02_01 0.000000 0.000000 0.000000 0.000000 0.000000 0.000000 10.000000 
R_front_hand03_01 0.000000 0.000000 0.000000 0.000000 0.000000 0.000000 10.000000 
R_front_hand01_02 0.000000 0.000000 0.000000 0.000000 0.000000 0.000000 10.000000 
R_front_hand02_02 0.000000 0.000000 0.000000 0.000000 0.000000 0.000000 10.000000 
R_front_hand03_02 0.000000 0.000000 0.000000 0.000000 0.000000 0.000000 10.000000 
null_rope01_connect 0.000000 0.000000 0.000000 0.000000 0.000000 0.000000 10.000000 
Rope1_Seg01 0.000000 0.000000 0.000000 0.000000 0.000000 0.000000 10.000000 
Rope1_Seg02 0.000000 0.000000 0.000000 0.000000 0.000000 0.000000 10.000000 
Rope1_Seg03 0.000000 0.000000 0.000000 0.000000 0.000000 0.000000 10.000000 
Rope1_Seg04 0.000000 0.000000 0.000000 0.000000 0.000000 0.000000 10.000000 
Rope1_Seg05 0.000000 0.000000 0.000000 0.000000 0.000000 0.000000 10.000000 
Rope1_Seg06 0.000000 0.000000 0.000000 0.000000 0.000000 0.000000 10.000000 
Rope1_Seg07 0.000000 0.000000 0.000000 0.000000 0.000000 0.000000 10.000000 
Rope1_Seg09 0.000000 0.000000 0.000000 0.000000 0.000000 0.000000 10.000000 
L_mid_hand01 0.000000 0.000000 0.000000 0.000000 0.000000 0.000000 10.000000 
L_mid_hand02 0.000000 0.000000 0.000000 0.000000 0.000000 0.000000 10.000000 
L_mid_hand03 0.000000 0.000000 0.000000 0.000000 0.000000 0.000000 10.000000 
null_rope02_connect 0.000000 0.000000 0.000000 0.000000 0.000000 0.000000 10.000000 
Rope2_Seg01 0.000000 0.000000 0.000000 0.000000 0.000000 0.000000 10.000000 
Rope2_Seg02 0.000000 0.000000 0.000000 0.000000 0.000000 0.000000 10.000000 
Rope2_Seg03 0.000000 0.000000 0.000000 0.000000 0.000000 0.000000 10.000000 
Rope2_Seg04 0.000000 0.000000 0.000000 0.000000 0.000000 0.000000 10.000000 
Rope2_Seg05 0.000000 0.000000 0.000000 0.000000 0.000000 0.000000 10.000000 
Rope2_Seg06 0.000000 0.000000 0.000000 0.000000 0.000000 0.000000 10.000000 
Rope2_Seg07 0.000000 0.000000 0.000000 0.000000 0.000000 0.000000 10.000000 
Rope2_Seg09 0.000000 0.000000 0.000000 0.000000 0.000000 0.000000 10.000000 
R_mid_hand01 0.000000 0.000000 0.000000 0.000000 0.000000 0.000000 10.000000 
R_mid_hand02 0.000000 0.000000 0.000000 0.000000 0.000000 0.000000 10.000000 
R_mid_hand03 0.000000 0.000000 0.000000 0.000000 0.000000 0.000000 10.000000 
spine02 0.000000 0.000000 0.000000 0.000000 0.000000 0.000000 10.000000 
spine03 0.000000 0.000000 0.000000 0.000000 0.000000 0.000000 10.000000 
pelvis 0.000000 0.000000 0.000000 0.000000 0.000000 0.000000 10.000000 
null_rope03_connect 0.000000 0.000000 0.000000 0.000000 0.000000 0.000000 10.000000 
null_rope04_connect 0.000000 0.000000 0.000000 0.000000 0.000000 0.000000 10.000000 
Rope3_Seg01 0.000000 0.000000 0.000000 0.000000 0.000000 0.000000 10.000000 
Rope3_Seg02 0.000000 0.000000 0.000000 0.000000 0.000000 0.000000 10.000000 
Rope3_Seg03 0.000000 0.000000 0.000000 0.000000 0.000000 0.000000 10.000000 
Rope3_Seg04 0.000000 0.000000 0.000000 0.000000 0.000000 0.000000 10.000000 
Rope3_Seg05 0.000000 0.000000 0.000000 0.000000 0.000000 0.000000 10.000000 
Rope3_Seg06 0.000000 0.000000 0.000000 0.000000 0.000000 0.000000 10.000000 
Rope3_Seg07 0.000000 0.000000 0.000000 0.000000 0.000000 0.000000 10.000000 
Rope3_Seg08 0.000000 0.000000 0.000000 0.000000 0.000000 0.000000 10.000000 
Rope3_Seg09 0.000000 0.000000 0.000000 0.000000 0.000000 0.000000 10.000000 
R_rear_hand01 0.000000 0.000000 0.000000 0.000000 0.000000 0.000000 10.000000 
R_rear_hand02 0.000000 0.000000 0.000000 0.000000 0.000000 0.000000 10.000000 
R_rear_hand03 0.000000 0.000000 0.000000 0.000000 0.000000 0.000000 10.000000 
Rope4_Seg01 0.000000 0.000000 0.000000 0.000000 0.000000 0.000000 10.000000 
Rope4_Seg02 0.000000 0.000000 0.000000 0.000000 0.000000 0.000000 10.000000 
Rope4_Seg03 0.000000 0.000000 0.000000 0.000000 0.000000 0.000000 10.000000 
Rope4_Seg04 0.000000 0.000000 0.000000 0.000000 0.000000 0.000000 10.000000 
Rope4_Seg05 0.000000 0.000000 0.000000 0.000000 0.000000 0.000000 10.000000 
Rope4_Seg06 0.000000 0.000000 0.000000 0.000000 0.000000 0.000000 10.000000 
Rope4_Seg07 0.000000 0.000000 0.000000 0.000000 0.000000 0.000000 10.000000 
Rope4_Seg08 0.000000 0.000000 0.000000 0.000000 0.000000 0.000000 10.000000 
Rope4_Seg09 0.000000 0.000000 0.000000 0.000000 0.000000 0.000000 10.000000 
L_rear_hand01 0.000000 0.000000 0.000000 0.000000 0.000000 0.000000 10.000000 
L_rear_hand02 0.000000 0.000000 0.000000 0.000000 0.000000 0.000000 10.000000 
L_rear_hand03 0.000000 0.000000 0.000000 0.000000 0.000000 0.000000 10.000000 
#Beginning of Data. Separated by tabs
#Fr	Tx	Ty	Tz	Rx	Ry	Rz	SF
[MASTER]
11 0.000000 0.000000 0.000000 0.001660 0.001660 0.001660 0.000000
12 0.000000 0.000000 0.000000 0.001660 0.001660 0.001660 0.000000
[root]
11 -25.022888 -31.891588 1479.977295 -84.460114 -13.344001 -93.609489 1480.532227
12 -26.521538 -35.888996 1484.372070 -83.735153 -13.763582 -94.024368 1485.042725
[chest]
11 -84.512650 -34.090519 0.000000 -2.009716 1.463885 -174.653091 91.129311
12 -84.512650 -34.090519 0.000000 -2.063134 1.599673 -174.675903 91.129311
[L_mid_tent01]
11 27.299143 22.179216 -249.918716 4.968611 8.236918 83.499817 252.381714
12 27.299149 22.179224 -249.918716 4.812228 8.766795 82.864655 252.381714
[R_mid_tent01]
11 23.228794 24.509907 226.238495 164.059433 -3.118390 76.648499 228.744751
12 23.228794 24.509907 226.238495 164.226883 -4.936842 76.419678 228.744751
[spine01]
11 -0.361383 -0.195265 0.000000 -0.000001 -0.000007 22.052340 0.410763
12 -0.361383 -0.195265 0.000000 -0.000001 -0.000007 22.052340 0.410763
[Bip01_Neck]
11 165.484543 71.581718 0.000119 176.643677 -1.657967 43.431911 180.302734
12 165.484543 71.581718 0.000119 176.643677 -1.657967 43.431911 180.302734
[L_humerus]
11 -13.983130 -135.272980 -120.471481 175.891327 -3.057992 -154.191223 181.680161
12 -13.983130 -135.272980 -120.471481 174.436768 -1.114384 -152.189713 181.680161
[R_humerus]
11 -13.983309 -135.273102 125.287651 -177.966370 2.444093 -149.699738 184.909012
12 -13.983309 -135.273102 125.287651 -176.687866 0.625178 -147.565247 184.909012
[weapon_bone]
11 235.964890 -300.705902 0.000000 0.000000 -89.951546 -128.212341 382.234833
12 235.964890 -300.705902 0.000000 0.000000 -89.951546 -128.212341 382.234833
[Bip01_Head]
11 213.587692 185.316574 16.926933 4.974313 6.861770 -43.849888 283.281586
12 213.621902 185.221329 18.156738 4.971186 5.906044 -43.870068 283.321228
[eye_left_bone]
11 -24.626970 125.451866 -64.772606 0.000000 -90.000000 -99.840431 143.318359
12 -24.626970 125.451866 -64.772606 0.000000 -90.000000 -99.840431 143.318359
[eye_right_bone]
11 -24.626970 125.451866 64.327362 0.000000 -89.965736 80.156380 143.117676
12 -24.626970 125.451866 64.327362 0.000000 -89.965736 80.156380 143.117676
[L_forearm]
11 322.776093 0.000000 -0.000119 0.000396 -0.002314 -109.419975 322.776093
12 322.776093 0.000000 -0.000119 0.000396 -0.002314 -109.419975 322.776093
[L_front_hand]
11 241.149185 -0.042021 -3.300071 -178.667953 -1.835447 -27.422350 241.171753
12 241.149185 -0.042021 -3.300071 -178.667953 -1.835447 -27.422342 241.171753
[L_weapon_bone]
11 156.183838 0.000000 0.000000 0.000014 0.000007 0.000001 156.183838
12 156.183838 0.000000 0.000000 0.000014 0.000007 0.000001 156.183838
[L_front_hand01_01]
11 86.095154 20.947098 -0.655860 -0.282467 -0.528169 66.067474 88.609184
12 86.095154 20.947098 -0.655860 -0.274633 -0.532782 65.272827 88.609184
[L_front_hand02_01]
11 86.935165 -11.437475 24.513514 141.960785 -54.937931 -46.642326 91.046425
12 86.935165 -11.437475 24.513514 141.090271 -54.445614 -45.572052 91.046425
[L_front_hand03_01]
11 86.637497 -14.123976 -20.424902 -142.303543 53.163303 -48.671021 90.126129
12 86.637497 -14.123976 -20.424902 -141.476303 52.677540 -47.637543 90.126129
[L_front_hand01_02]
11 71.020905 -0.000179 0.000030 0.000315 -0.002326 -105.442795 71.020905
12 71.020905 -0.000179 0.000030 0.000315 -0.002326 -105.419182 71.020905
[L_front_hand02_02]
11 71.020927 -0.000119 0.000060 0.000315 -0.002326 -105.442795 71.020927
12 71.020927 -0.000119 0.000060 0.000315 -0.002326 -105.419182 71.020927
[L_front_hand03_02]
11 71.020905 -0.000060 0.000060 0.000315 -0.002326 -105.442795 71.020905
12 71.020905 -0.000060 0.000060 0.000315 -0.002326 -105.419182 71.020905
[R_forearm]
11 322.776428 -0.000060 0.000030 0.202103 0.065158 -108.062805 322.776428
12 322.776428 -0.000060 0.000030 0.202103 0.065158 -108.062805 322.776428
[R_front_hand]
11 238.847015 -0.006795 2.210259 -2.635298 -10.645461 -26.312506 238.857239
12 238.847015 -0.006795 2.210259 -2.635298 -10.645461 -26.312506 238.857239
[R_weapon_bone]
11 155.664093 0.002503 -0.000030 0.003487 0.001180 -90.988930 155.664078
12 155.664093 0.002503 -0.000030 0.003487 0.001180 -90.988930 155.664078
[R_front_hand01_01]
11 87.624611 14.231146 22.918642 -141.947052 -54.924736 46.726727 91.683487
12 87.624611 14.231146 22.918642 -140.500656 -54.097115 44.955364 91.683487
[R_front_hand02_01]
11 89.356956 14.367283 -19.491137 142.634140 53.329124 49.315853 92.579636
12 89.356956 14.367283 -19.491137 141.255966 52.517570 47.591045 92.579636
[R_front_hand03_01]
11 87.286232 -22.307278 -0.143439 0.092230 -0.445770 -66.286446 90.091743
12 87.286232 -22.307278 -0.143439 0.080269 -0.445286 -64.968231 90.091743
[R_front_hand01_02]
11 71.020905 0.000060 0.000119 0.002323 -0.000334 106.381714 71.020905
12 71.020905 0.000060 0.000119 0.002323 -0.000334 106.381714 71.020905
[R_front_hand02_02]
11 71.020844 -0.000030 -0.000119 0.002323 -0.000334 106.381714 71.020836
12 71.020844 -0.000030 -0.000119 0.002323 -0.000334 106.381714 71.020836
[R_front_hand03_02]
11 71.020905 0.000000 0.000030 0.002323 -0.000334 106.381714 71.020905
12 71.020905 0.000000 0.000030 0.002323 -0.000334 106.381714 71.020905
[null_rope01_connect]
11 328.732483 0.000000 -0.000238 -93.930046 -80.178856 113.827538 328.732483
12 328.732483 0.000000 -0.000238 -92.204254 -79.842781 113.137863 328.732483
[Rope1_Seg01]
11 0.000000 0.000000 0.000000 -62.137081 50.726669 -75.317810 0.000000
12 0.000000 0.000000 0.000000 -65.035797 52.589451 -76.344719 0.000000
[Rope1_Seg02]
11 139.999863 -0.000179 0.000000 -3.374458 1.500569 3.327706 139.999863
12 139.999863 -0.000179 0.000000 -2.682818 0.821190 3.084688 139.999863
[Rope1_Seg03]
11 139.999924 0.000060 -0.000060 -4.201665 1.805784 4.752822 139.999924
12 139.999924 0.000060 -0.000060 -3.328421 0.945498 4.364091 139.999924
[Rope1_Seg04]
11 139.999924 -0.000060 -0.000119 -5.938213 3.507306 6.834898 139.999924
12 139.999924 -0.000060 -0.000119 -4.508359 1.905996 6.186796 139.999924
[Rope1_Seg05]
11 139.999832 0.000119 -0.000060 -8.526239 6.041514 12.425710 139.999832
12 139.999832 0.000119 -0.000060 -7.712178 6.020034 10.507396 139.999832
[Rope1_Seg06]
11 139.999954 0.000119 -0.000060 -1.343035 -14.018608 14.496146 139.999954
12 139.999954 0.000119 -0.000060 -2.837764 -15.369023 18.996723 139.999954
[Rope1_Seg07]
11 139.999985 0.000060 0.000000 -0.334097 -11.723956 7.578534 139.999985
12 139.999985 0.000060 0.000000 -1.039845 -13.712564 9.637366 139.999985
[Rope1_Seg09]
11 121.602913 0.000119 -0.000089 -89.793175 -1.359789 0.847147 121.602913
12 121.602913 0.000119 -0.000089 -89.793175 -1.359789 0.847147 121.602913
[L_mid_hand01]
11 103.859421 1.038730 8.195221 110.016701 -43.583408 -14.630757 104.187431
12 103.859421 1.038730 8.195221 111.216125 -46.770245 -16.325298 104.187431
[L_mid_hand02]
11 105.572853 -4.139662 -10.864139 -148.402466 33.171719 -41.059582 106.211075
12 105.572853 -4.139662 -10.864139 -150.384232 34.904911 -44.592556 106.211075
[L_mid_hand03]
11 104.641464 17.579376 -3.913581 -13.575852 13.082145 47.042416 106.179977
12 104.641464 17.579376 -3.913581 -12.781249 13.855401 50.452690 106.179977
[null_rope02_connect]
11 328.732849 0.000179 -0.000119 -93.382813 76.710442 58.673531 328.732849
12 328.732849 0.000179 -0.000119 -101.964905 75.985298 48.997448 328.732849
[Rope2_Seg01]
11 0.000095 0.000153 0.000042 139.766968 57.885799 -92.401031 0.000185
12 0.000095 0.000153 0.000047 150.333496 59.729683 -83.643204 0.000186
[Rope2_Seg02]
11 139.999741 -0.000060 -0.000119 5.259995 -4.906667 -5.622312 139.999756
12 139.999741 -0.000060 -0.000119 4.603315 -6.222255 -3.679409 139.999756
[Rope2_Seg03]
11 140.000107 0.000030 0.000000 5.231324 -6.103091 -5.877051 140.000107
12 140.000107 0.000030 0.000000 4.067462 -7.195319 -3.542151 140.000107
[Rope2_Seg04]
11 139.999802 0.000000 -0.000060 5.614769 -6.302442 -7.513062 139.999802
12 139.999802 0.000000 -0.000060 3.780465 -7.173958 -4.341567 139.999802
[Rope2_Seg05]
11 139.999985 -0.000060 0.000119 4.440557 -5.893833 -6.702941 139.999985
12 139.999985 -0.000060 0.000119 2.773030 -6.200382 -4.038483 139.999985
[Rope2_Seg06]
11 139.999893 -0.000030 -0.000119 1.092717 -8.650870 0.395179 139.999893
12 139.999893 -0.000030 -0.000119 0.795884 -8.660934 0.581236 139.999893
[Rope2_Seg07]
11 139.999893 0.000060 -0.000060 -1.563456 -16.434105 9.222095 139.999893
12 139.999893 0.000060 -0.000060 -0.881477 -15.646367 6.421235 139.999893
[Rope2_Seg09]
11 121.338966 0.000089 -0.000060 33.793236 -1.359788 -0.847141 121.338966
12 121.338966 0.000089 -0.000060 33.793236 -1.359788 -0.847141 121.338966
[R_mid_hand01]
11 104.680779 11.144459 -10.335981 -36.116539 33.174709 39.598408 105.778534
12 104.680779 11.144459 -10.335981 -36.922554 32.243565 38.107742 105.778534
[R_mid_hand02]
11 104.070427 2.443552 8.231699 69.680672 -44.419228 15.065828 104.424065
12 104.070427 2.443552 8.231699 70.193451 -42.958271 14.324638 104.424065
[R_mid_hand03]
11 106.028137 -11.221827 -5.996406 -170.354065 12.593575 -49.350609 106.788818
12 106.028137 -11.221827 -5.996406 -170.013962 12.325404 -47.779564 106.788818
[spine02]
11 129.756927 0.001550 0.000119 0.360061 -4.044797 -12.915058 129.756927
12 129.756927 0.001550 0.000119 0.360061 -4.044797 -12.915058 129.756927
[spine03]
11 78.614052 0.081651 -4.899014 1.896495 3.831288 16.473045 78.766586
12 78.614052 0.081668 -4.899014 1.896495 3.831288 16.473045 78.766586
[pelvis]
11 169.435242 0.051022 0.000000 -0.060465 -0.180225 14.087930 169.435257
12 169.435242 0.051022 0.000000 -0.060465 -0.180225 14.087930 169.435257
[null_rope03_connect]
11 -1.257226 -2.466202 137.391083 -18.774992 -83.122307 82.629967 137.418976
12 -1.257226 -2.466202 137.391083 -18.406425 -82.401230 82.728157 137.418976
[null_rope04_connect]
11 -1.259640 -2.480268 -137.844437 -18.774992 -83.122307 82.629967 137.872513
12 -1.259640 -2.480268 -137.844437 -18.406425 -82.401230 82.728157 137.872513
[Rope3_Seg01]
11 -0.000010 0.000000 -0.000170 -127.593567 20.200405 -66.155479 0.000170
12 -0.000010 0.000000 -0.000186 -127.477234 14.555688 -63.938965 0.000187
[Rope3_Seg02]
11 139.999924 -0.000119 0.000060 0.316375 -7.678732 6.993764 139.999924
12 139.999924 -0.000119 0.000060 0.914732 -6.301839 6.205513 139.999924
[Rope3_Seg03]
11 139.999924 -0.000119 0.000119 -0.340395 -10.317591 9.727320 139.999924
12 139.999924 -0.000119 0.000119 0.543617 -8.832243 9.136436 139.999924
[Rope3_Seg04]
11 139.999924 0.000119 0.000000 -1.620839 -12.976163 12.240207 139.999924
12 139.999924 0.000119 0.000000 -0.544158 -11.011900 11.735808 139.999924
[Rope3_Seg05]
11 139.999924 -0.000238 0.000060 -1.660920 -10.567213 10.187160 139.999924
12 139.999924 -0.000238 0.000060 -1.574343 -11.214183 12.490562 139.999924
[Rope3_Seg06]
11 139.999893 -0.000119 -0.000060 -1.471509 -8.410114 8.856920 139.999893
12 139.999893 -0.000119 -0.000060 -3.890563 -13.780067 16.318316 139.999893
[Rope3_Seg07]
11 139.999771 0.000060 -0.000119 -1.952720 -8.616822 8.887621 139.999771
12 139.999771 0.000060 -0.000119 -5.020133 -13.299502 14.742688 139.999771
[Rope3_Seg08]
11 139.999985 -0.000060 0.000000 -1.398095 -6.459919 6.161888 139.999985
12 139.999985 -0.000060 0.000000 -2.550857 -7.731473 7.402934 139.999985
[Rope3_Seg09]
11 90.185997 -0.000179 -0.000060 89.793228 -1.359877 -0.847183 90.185997
12 90.185997 -0.000179 -0.000060 89.793228 -1.359877 -0.847183 90.185997
[R_rear_hand01]
11 103.366196 -6.073594 -10.757982 -165.009155 19.819433 -41.100952 104.101845
12 103.366196 -6.073594 -10.757982 -164.755127 19.627697 -40.352161 104.101845
[R_rear_hand02]
11 100.509819 12.039542 -7.992327 -30.502352 25.155794 38.836960 101.543350
12 100.509819 12.039542 -7.992327 -30.792652 24.782450 38.141541 101.543350
[R_rear_hand03]
11 101.539970 5.215704 5.435467 82.364594 -41.773369 8.967985 101.819031
12 101.539970 5.215704 5.435467 82.448349 -41.048256 8.840383 101.819031
[Rope4_Seg01]
11 0.000010 0.000038 -0.000114 71.428535 43.229813 -75.359390 0.000121
12 0.000010 0.000038 -0.000114 61.185478 41.774429 -89.359459 0.000121
[Rope4_Seg02]
11 139.999985 0.000060 0.000119 7.079585 -1.786210 -16.809237 139.999985
12 139.999985 0.000060 0.000119 4.396840 4.363817 -13.458571 139.999985
[Rope4_Seg03]
11 139.999924 0.000000 -0.000238 2.723974 -3.204640 -10.104148 139.999924
12 139.999924 0.000000 -0.000238 1.859299 0.527688 -6.458133 139.999924
[Rope4_Seg04]
11 139.999985 0.000000 0.000119 0.885626 -4.812913 -5.814878 139.999985
12 139.999985 0.000000 0.000119 0.470686 -1.823725 -2.424774 139.999985
[Rope4_Seg05]
11 139.999802 -0.000060 -0.000119 0.433281 0.119455 -3.668237 139.999802
12 139.999802 -0.000060 -0.000119 0.861546 1.658159 -3.151934 139.999802
[Rope4_Seg06]
11 139.999924 0.000000 0.000060 0.576160 4.244927 -4.140139 139.999924
12 139.999924 0.000000 0.000060 1.710833 5.182825 -5.602370 139.999924
[Rope4_Seg07]
11 139.999802 0.000000 0.000000 1.561108 10.708671 -7.089979 139.999802
12 139.999802 0.000000 0.000000 3.983637 11.276546 -11.606055 139.999802
[Rope4_Seg08]
11 139.999924 0.000000 0.000119 0.905335 8.050927 -6.984499 139.999924
12 139.999924 0.000000 0.000119 2.882657 7.885339 -10.247779 139.999924
[Rope4_Seg09]
11 90.185791 0.000060 0.000060 -135.617828 2.228885 0.850567 90.185791
12 90.185791 0.000060 0.000060 -135.617828 2.228885 0.850567 90.185791
[L_rear_hand01]
11 101.696655 -8.392275 -7.654577 -28.015858 -27.942150 135.607513 102.329041
12 101.696655 -8.392275 -7.654577 -26.077669 -29.734318 131.595917 102.329041
[L_rear_hand02]
11 102.726799 -1.568258 5.773216 81.577332 47.415279 169.913010 102.900848
12 102.726799 -1.568258 5.773216 80.880585 51.310986 168.994995 102.900848
[L_rear_hand03]
11 104.552910 9.721220 -10.420293 -167.078079 -21.194334 -132.993317 105.519653
12 104.552910 9.721220 -10.420293 -168.606277 -22.023737 -128.845825 105.519653
